<?xml version="1.0" encoding="UTF-8"?>
<!-- Generator: visioncortex VTracer 0.6.4 -->
<svg version="1.1" xmlns="http://www.w3.org/2000/svg" width="779" height="320">
<path d="M0 0 C1.32 0 2.64 0 4 0 C7.32 7.52 7.2 15.03 7.32 23.11 C7.35 24.9 7.35 24.9 7.38 26.72 C7.45 30.59 7.5 34.45 7.56 38.31 C7.61 40.95 7.65 43.59 7.69 46.23 C7.98 64.82 8.14 83.41 8 102 C62.78 106.24 118.46 105.26 173.21 101.21 C176.75 100.94 180.29 100.7 183.83 100.45 C191.25 99.93 198.67 99.38 206.08 98.82 C218.14 97.91 230.19 97.05 242.25 96.2 C245.78 95.95 249.3 95.7 252.83 95.45 C282.95 93.31 313.07 91.7 343.24 90.53 C349.63 90.28 356.01 90.03 362.4 89.77 C364.57 89.69 366.75 89.6 368.93 89.52 C375.61 89.26 382.28 88.93 388.95 88.47 C396.58 87.97 404.2 87.82 411.85 87.77 C414.22 87.75 416.59 87.73 418.96 87.71 C425.69 87.64 432.42 87.58 439.15 87.52 C460.51 87.35 481.7 86.75 503 85 C503.88 84.93 504.77 84.86 505.68 84.78 C510.56 84.39 515.44 83.95 520.31 83.5 C523.16 83.24 526.02 82.98 528.87 82.72 C529.56 82.66 530.25 82.6 530.96 82.53 C535.41 82.13 539.86 81.77 544.32 81.43 C545.45 81.35 546.57 81.26 547.73 81.18 C549.78 81.02 551.83 80.88 553.87 80.73 C560.35 80.25 566.63 79.28 573 78 C573.33 79.65 573.66 81.3 574 83 C568.26 85.89 563.39 86.56 557.01 86.84 C556.04 86.9 555.06 86.95 554.06 87.01 C550.93 87.19 547.81 87.34 544.69 87.5 C540.65 87.71 536.61 87.93 532.57 88.16 C530.99 88.24 530.99 88.24 529.38 88.33 C523.22 88.69 517.08 89.15 510.94 89.74 C509.9 89.84 509.9 89.84 508.84 89.95 C508.14 90.01 507.43 90.08 506.71 90.15 C490.15 91.74 473.76 92.42 457.12 92.48 C449.7 92.51 442.28 92.6 434.86 92.69 C434.09 92.7 433.32 92.71 432.53 92.72 C414.26 92.95 396.01 93.65 377.75 94.44 C376.97 94.47 376.19 94.5 375.39 94.54 C366.49 94.93 357.6 95.33 348.7 95.74 C343.79 95.97 338.88 96.18 333.97 96.39 C311.37 97.35 288.82 98.87 266.26 100.47 C249.99 101.62 233.72 102.62 217.44 103.5 C194.78 104.73 172.15 106.26 149.52 107.89 C145.26 108.2 141 108.5 136.74 108.8 C134.35 108.98 131.96 109.15 129.57 109.33 C118.62 110.11 107.71 110.16 96.75 110.12 C95.78 110.12 94.81 110.12 93.81 110.12 C80.14 110.1 66.48 109.94 52.81 109.56 C52.07 109.54 51.33 109.52 50.57 109.5 C37.87 109.16 37.87 109.16 32.2 108.46 C24.2 107.54 16.04 107.93 8 108 C8 108.73 8 109.47 8.01 110.22 C8.03 117.26 8.04 124.31 8.05 131.35 C8.06 134.96 8.06 138.58 8.08 142.2 C8.12 157.33 8.06 172.42 7.35 187.54 C6.96 196.03 6.89 204.5 7 213 C12.76 213.15 18.52 213.29 24.27 213.43 C26.22 213.47 28.17 213.52 30.12 213.57 C32.96 213.64 35.8 213.71 38.64 213.78 C39.9 213.81 39.9 213.81 41.18 213.85 C58.98 214.26 76.78 213.93 94.57 213.6 C96.91 213.56 99.25 213.51 101.59 213.47 C106.48 213.38 111.37 213.29 116.25 213.2 C122.38 213.09 128.52 212.97 134.65 212.86 C187.03 212.04 187.03 212.04 239.38 210.2 C291.98 207.72 344.74 208.77 397.37 209.64 C414.41 209.92 431.39 210.07 448.42 209.41 C462.21 208.9 476 208.85 489.8 208.82 C492.54 208.82 495.29 208.81 498.03 208.79 C515.47 208.71 532.68 209.38 550.06 210.78 C556.28 211.25 562.51 211.45 568.75 211.62 C569.96 211.66 571.17 211.7 572.41 211.74 C575.28 211.83 578.14 211.92 581 212 C581.56 213.94 581.56 213.94 582 216 C579.25 218.75 572.13 217.88 568.27 218 C561.93 218 555.63 217.09 549.35 216.37 C515.61 212.53 481.75 213.66 447.88 214.64 C420.97 215.41 394.09 214.98 367.19 214.5 C333.41 213.9 299.65 213.66 265.88 214.38 C265.09 214.39 264.3 214.41 263.49 214.42 C254.53 214.6 245.59 214.95 236.64 215.47 C214.33 216.74 192.1 217.37 169.76 217.54 C162.71 217.6 155.66 217.68 148.61 217.75 C146.88 217.77 145.15 217.79 143.43 217.81 C130.49 217.94 117.56 218.18 104.62 218.56 C71.77 219.5 38.84 219.54 6 218 C6.33 218.99 6.66 219.98 7 221 C7.14 222.41 7.25 223.82 7.32 225.23 C7.36 226.03 7.4 226.84 7.44 227.66 C7.48 228.5 7.52 229.33 7.56 230.19 C7.63 231.45 7.63 231.45 7.69 232.75 C7.8 234.83 7.9 236.92 8 239 C6.68 239 5.36 239 4 239 C2.4 233.91 1.88 229.55 1.94 224.2 C1.95 223.04 1.96 221.87 1.96 220.67 C1.98 219.79 1.99 218.91 2 218 C0.77 217.96 -0.45 217.92 -1.72 217.88 C-59.01 215.97 -59.01 215.97 -78 209 C-78 208.34 -78 207.68 -78 207 C-73.05 206.86 -68.71 207.36 -63.88 208.39 C-51.05 210.87 -37.96 211.08 -24.94 211.69 C-22.32 211.82 -19.7 211.95 -17.08 212.08 C-10.72 212.4 -4.36 212.7 2 213 C1.99 211.94 1.99 210.88 1.98 209.79 C1.9 191.52 1.87 173.28 2.64 155.02 C3.28 138.69 3.09 122.34 3 106 C-1.16 105.96 -4.94 106.02 -9 107 C-9.33 106.01 -9.66 105.02 -10 104 C-8.05 101.97 -6.62 101.04 -3.78 100.85 C-2.98 100.87 -2.17 100.89 -1.34 100.91 C-0.12 100.93 -0.12 100.93 1.12 100.95 C1.74 100.96 2.36 100.98 3 101 C2.93 99.74 2.87 98.48 2.8 97.19 C2.2 85.21 1.87 73.23 1.72 61.24 C1.71 60.51 1.7 59.79 1.69 59.04 C1.61 53.02 1.54 47.01 1.47 40.99 C1.42 36.46 1.37 31.92 1.31 27.38 C1.28 25.28 1.26 23.18 1.24 21.08 C1.22 19.81 1.21 18.54 1.19 17.24 C1.18 16.13 1.16 15.02 1.15 13.87 C1.02 11.39 0.63 9.38 0 7 C-0.04 4.67 -0.04 2.33 0 0 Z " fill="#ACACAD" transform="translate(148,20)"/>
<path d="M0 0 C1.32 0 2.64 0 4 0 C7.32 7.52 7.2 15.03 7.32 23.11 C7.34 24.3 7.36 25.5 7.38 26.72 C7.45 30.59 7.5 34.45 7.56 38.31 C7.61 40.95 7.65 43.59 7.69 46.23 C7.98 64.82 8.14 83.41 8 102 C62.78 106.24 118.46 105.26 173.21 101.21 C176.75 100.94 180.29 100.7 183.83 100.45 C191.25 99.93 198.67 99.38 206.08 98.82 C218.14 97.91 230.19 97.05 242.25 96.2 C245.78 95.95 249.3 95.7 252.83 95.45 C282.95 93.31 313.07 91.7 343.24 90.53 C349.63 90.28 356.01 90.03 362.4 89.77 C364.57 89.69 366.75 89.6 368.93 89.52 C375.61 89.26 382.28 88.93 388.95 88.47 C396.58 87.97 404.2 87.82 411.85 87.77 C414.22 87.75 416.59 87.73 418.96 87.71 C425.69 87.64 432.42 87.58 439.15 87.52 C460.51 87.35 481.7 86.75 503 85 C504.33 84.89 504.33 84.89 505.68 84.78 C510.56 84.39 515.44 83.95 520.31 83.5 C523.16 83.24 526.02 82.98 528.87 82.72 C529.56 82.66 530.25 82.6 530.96 82.53 C535.41 82.13 539.86 81.77 544.32 81.43 C545.45 81.35 546.57 81.26 547.73 81.18 C549.78 81.02 551.83 80.88 553.87 80.73 C560.35 80.25 566.63 79.28 573 78 C573.33 79.65 573.66 81.3 574 83 C568.26 85.89 563.39 86.56 557.01 86.84 C556.04 86.9 555.06 86.95 554.06 87.01 C550.93 87.19 547.81 87.34 544.69 87.5 C540.65 87.71 536.61 87.93 532.57 88.16 C530.99 88.24 530.99 88.24 529.38 88.33 C523.22 88.69 517.08 89.15 510.94 89.74 C509.9 89.84 509.9 89.84 508.84 89.95 C508.14 90.01 507.43 90.08 506.71 90.15 C490.15 91.74 473.76 92.42 457.12 92.48 C449.7 92.51 442.28 92.6 434.86 92.69 C434.09 92.7 433.32 92.71 432.53 92.72 C414.26 92.95 396.01 93.65 377.75 94.44 C376.97 94.47 376.19 94.5 375.39 94.54 C366.49 94.93 357.6 95.33 348.7 95.74 C343.79 95.97 338.88 96.18 333.97 96.39 C311.38 97.35 288.85 98.87 266.3 100.47 C248.54 101.72 230.78 102.78 213 103.74 C196.89 104.61 180.82 105.68 164.75 107.09 C154.48 107.96 144.31 108.14 134 108 C134 107.67 134 107.34 134 107 C132.11 107.01 132.11 107.01 130.17 107.02 C105.9 107.11 81.64 107.06 57.38 106.56 C56.35 106.54 55.32 106.52 54.27 106.5 C51.35 106.45 48.44 106.38 45.52 106.32 C44.67 106.3 43.82 106.28 42.95 106.27 C37.9 106.14 33.01 105.67 28 105 C26.22 104.88 24.44 104.78 22.66 104.72 C21.74 104.68 20.83 104.64 19.88 104.61 C17.97 104.53 16.07 104.46 14.16 104.39 C13.25 104.36 12.35 104.32 11.41 104.28 C10.59 104.25 9.76 104.22 8.91 104.19 C7 104 7 104 6 103 C5.89 100.26 5.84 97.55 5.83 94.82 C5.82 93.96 5.81 93.1 5.81 92.21 C5.79 90.34 5.78 88.47 5.77 86.59 C5.75 83.62 5.73 80.65 5.71 77.67 C5.63 69.22 5.57 60.76 5.52 52.3 C5.49 47.13 5.45 41.96 5.4 36.8 C5.39 34.83 5.37 32.87 5.37 30.91 C5.32 20.77 5.23 10.95 3 1 C2.34 1 1.68 1 1 1 C1.32 1.87 1.63 2.75 1.96 3.65 C5.42 14.83 4.13 27.81 4.1 39.43 C4.1 41.27 4.09 43.11 4.09 44.95 C4.09 49.76 4.08 54.56 4.07 59.37 C4.06 64.29 4.05 69.21 4.05 74.13 C4.04 83.75 4.02 93.38 4 103 C0.7 102.67 -2.6 102.34 -6 102 C-6 101.67 -6 101.34 -6 101 C-3.03 101 -0.06 101 3 101 C2.9 99.11 2.9 99.11 2.8 97.19 C2.2 85.21 1.87 73.23 1.72 61.24 C1.7 60.15 1.7 60.15 1.69 59.04 C1.61 53.02 1.54 47.01 1.47 40.99 C1.42 36.46 1.37 31.92 1.31 27.38 C1.28 25.28 1.26 23.18 1.24 21.08 C1.22 19.18 1.22 19.18 1.19 17.24 C1.18 16.13 1.16 15.02 1.15 13.87 C1.02 11.39 0.63 9.38 0 7 C-0.04 4.67 -0.04 2.33 0 0 Z " fill="#ABAFB0" transform="translate(148,20)"/>
<path d="M0 0 C11.83 -0.03 23.67 -0.05 35.5 -0.06 C36.84 -0.06 36.84 -0.06 38.21 -0.07 C64.3 -0.09 90.38 0.09 116.46 0.52 C135.8 0.85 155.09 1.16 174.42 0.41 C188.21 -0.1 202 -0.15 215.8 -0.18 C218.54 -0.18 221.29 -0.19 224.03 -0.21 C241.47 -0.29 258.68 0.38 276.06 1.78 C282.28 2.25 288.51 2.45 294.75 2.62 C295.96 2.66 297.17 2.7 298.41 2.74 C301.28 2.83 304.14 2.92 307 3 C307.56 4.94 307.56 4.94 308 7 C305.25 9.75 298.13 8.88 294.27 9 C287.93 9 281.63 8.09 275.35 7.37 C241.61 3.53 207.75 4.66 173.88 5.64 C136.59 6.71 99.28 5.68 62 5 C62 4.67 62 4.34 62 4 C80.48 3.67 98.96 3.34 118 3 C90.65 2.24 63.3 1.78 35.94 1.44 C35.05 1.43 34.17 1.42 33.25 1.4 C22.17 1.27 11.08 1.13 0 1 C0 0.67 0 0.34 0 0 Z " fill="#AFB4B6" transform="translate(422,229)"/>
<path d="M0 0 C0 1.32 0 2.64 0 4 C-5.86 6.97 -10.93 7.58 -17.45 7.88 C-18.45 7.94 -19.46 7.99 -20.49 8.05 C-23.7 8.24 -26.91 8.4 -30.12 8.56 C-33.29 8.73 -36.45 8.91 -39.61 9.08 C-41.57 9.19 -43.52 9.3 -45.48 9.39 C-50.24 9.65 -54.98 9.99 -59.73 10.48 C-71.99 11.75 -84.09 12.32 -96.42 12.38 C-98.3 12.4 -100.19 12.41 -102.07 12.43 C-106.97 12.48 -111.88 12.51 -116.78 12.54 C-125.53 12.6 -134.29 12.68 -143.05 12.75 C-143.98 12.76 -144.91 12.77 -145.88 12.78 C-157.62 12.88 -169.34 13.11 -181.07 13.66 C-189.74 14.06 -198.39 14.12 -207.06 14.06 C-208.54 14.06 -210.01 14.05 -211.49 14.05 C-214.99 14.04 -218.5 14.02 -222 14 C-222 13.67 -222 13.34 -222 13 C-221.16 12.94 -220.31 12.89 -219.45 12.83 C-216.33 12.63 -213.21 12.41 -210.09 12.2 C-208.74 12.11 -207.39 12.02 -206.04 11.93 C-204.1 11.8 -202.16 11.67 -200.22 11.54 C-199.05 11.46 -197.89 11.38 -196.68 11.3 C-194.08 11.29 -194.08 11.29 -193 10 C-190.66 9.76 -188.35 9.58 -186.01 9.45 C-185.29 9.41 -184.57 9.37 -183.83 9.33 C-176.61 8.93 -169.39 8.82 -162.15 8.77 C-159.78 8.75 -157.41 8.73 -155.04 8.71 C-148.31 8.64 -141.58 8.58 -134.85 8.52 C-113.49 8.35 -92.3 7.75 -71 6 C-70.12 5.93 -69.23 5.86 -68.32 5.78 C-63.44 5.39 -58.56 4.95 -53.69 4.5 C-50.84 4.24 -47.99 3.98 -45.14 3.72 C-44.45 3.66 -43.76 3.6 -43.05 3.53 C-38.58 3.13 -34.11 2.77 -29.64 2.43 C-28.52 2.35 -27.39 2.26 -26.22 2.18 C-24.16 2.02 -22.1 1.88 -20.04 1.73 C-14.56 1.33 -9.35 0.56 -4 -0.69 C-2 -1 -2 -1 0 0 Z " fill="#AFB6B6" transform="translate(722,99)"/>
<path d="M0 0 C1.32 0 2.64 0 4 0 C7.32 7.52 7.2 15.03 7.32 23.11 C7.34 24.3 7.36 25.5 7.38 26.72 C7.45 30.59 7.5 34.45 7.56 38.31 C7.61 40.95 7.65 43.59 7.69 46.23 C7.98 64.82 8.14 83.41 8 102 C65.86 106.47 125.97 106.47 183.68 100.2 C187.66 99.86 191.63 99.89 195.62 99.94 C196.44 99.94 197.25 99.95 198.09 99.95 C200.06 99.96 202.03 99.98 204 100 C204 100.33 204 100.66 204 101 C203.44 101.04 202.88 101.07 202.3 101.11 C196.44 101.48 190.59 101.85 184.73 102.23 C182.55 102.37 180.36 102.51 178.18 102.64 C175.04 102.84 171.89 103.04 168.75 103.25 C167.78 103.31 166.81 103.37 165.81 103.43 C160.82 103.75 155.93 104.21 151 105 C157.32 105.09 163.58 105.11 169.88 104.5 C176.92 103.83 183.93 103.91 191 104 C191 104.33 191 104.66 191 105 C185.78 105.44 180.55 105.86 175.33 106.28 C173.56 106.42 171.79 106.57 170.02 106.72 C157.98 107.72 146.08 108.2 134 108 C134 107.67 134 107.34 134 107 C132.11 107.01 132.11 107.01 130.17 107.02 C105.9 107.11 81.64 107.06 57.38 106.56 C56.35 106.54 55.32 106.52 54.27 106.5 C51.35 106.45 48.44 106.38 45.52 106.32 C44.67 106.3 43.82 106.28 42.95 106.27 C37.9 106.14 33.01 105.67 28 105 C26.22 104.88 24.44 104.78 22.66 104.72 C21.74 104.68 20.83 104.64 19.88 104.61 C17.97 104.53 16.07 104.46 14.16 104.39 C13.25 104.36 12.35 104.32 11.41 104.28 C10.59 104.25 9.76 104.22 8.91 104.19 C7 104 7 104 6 103 C5.89 100.26 5.84 97.55 5.83 94.82 C5.82 93.96 5.81 93.1 5.81 92.21 C5.79 90.34 5.78 88.47 5.77 86.59 C5.75 83.62 5.73 80.65 5.71 77.67 C5.63 69.22 5.57 60.76 5.52 52.3 C5.49 47.13 5.45 41.96 5.4 36.8 C5.39 34.83 5.37 32.87 5.37 30.91 C5.32 20.77 5.23 10.95 3 1 C2.34 1 1.68 1 1 1 C1.32 1.87 1.63 2.75 1.96 3.65 C5.42 14.83 4.13 27.81 4.1 39.43 C4.1 41.27 4.09 43.11 4.09 44.95 C4.09 49.76 4.08 54.56 4.07 59.37 C4.06 64.29 4.05 69.21 4.05 74.13 C4.04 83.75 4.02 93.38 4 103 C0.7 102.67 -2.6 102.34 -6 102 C-6 101.67 -6 101.34 -6 101 C-3.03 101 -0.06 101 3 101 C2.9 99.11 2.9 99.11 2.8 97.19 C2.2 85.21 1.87 73.23 1.72 61.24 C1.7 60.15 1.7 60.15 1.69 59.04 C1.61 53.02 1.54 47.01 1.47 40.99 C1.42 36.46 1.37 31.92 1.31 27.38 C1.28 25.28 1.26 23.18 1.24 21.08 C1.22 19.18 1.22 19.18 1.19 17.24 C1.18 16.13 1.16 15.02 1.15 13.87 C1.02 11.39 0.63 9.38 0 7 C-0.04 4.67 -0.04 2.33 0 0 Z " fill="#C3C3C5" transform="translate(148,20)"/>
<path d="M0 0 C0 0.33 0 0.66 0 1 C-1.06 1.02 -2.11 1.04 -3.2 1.06 C-13.34 1.26 -23.48 1.47 -33.63 1.68 C-38.84 1.79 -44.04 1.89 -49.25 1.99 C-69.69 2.39 -90.1 2.85 -110.5 4.04 C-129.08 5.12 -147.64 5.39 -166.24 5.54 C-173.29 5.6 -180.34 5.68 -187.39 5.75 C-189.12 5.77 -190.85 5.79 -192.57 5.81 C-205.51 5.94 -218.44 6.18 -231.38 6.56 C-264.23 7.5 -297.16 7.54 -330 6 C-329.5 7.49 -329.5 7.49 -329 9 C-328.86 10.41 -328.75 11.82 -328.68 13.23 C-328.64 14.03 -328.6 14.84 -328.56 15.66 C-328.52 16.5 -328.48 17.33 -328.44 18.19 C-328.39 19.03 -328.35 19.88 -328.31 20.75 C-328.2 22.83 -328.1 24.92 -328 27 C-329.32 27 -330.64 27 -332 27 C-333.6 21.91 -334.12 17.55 -334.06 12.2 C-334.05 11.04 -334.04 9.87 -334.04 8.67 C-334.02 7.79 -334.01 6.91 -334 6 C-334.55 5.98 -335.09 5.95 -335.65 5.93 C-341.37 5.69 -347.08 5.45 -352.79 5.2 C-354.91 5.11 -357.04 5.02 -359.17 4.93 C-362.24 4.8 -365.31 4.67 -368.38 4.54 C-369.32 4.5 -370.26 4.46 -371.23 4.42 C-376.54 4.18 -381.74 3.74 -387 3 C-387 2.67 -387 2.34 -387 2 C-384.73 1.97 -382.46 1.95 -380.19 1.94 C-378.92 1.93 -377.66 1.91 -376.36 1.9 C-373.18 1.93 -370.07 2.16 -366.91 2.47 C-360.05 3.14 -353.19 3.34 -346.31 3.56 C-344.38 3.63 -344.38 3.63 -342.42 3.69 C-339.28 3.8 -336.14 3.9 -333 4 C-332.94 4.95 -332.88 5.91 -332.82 6.89 C-332.73 8.14 -332.65 9.4 -332.56 10.69 C-332.48 11.93 -332.4 13.17 -332.32 14.45 C-332.04 18.26 -332.04 18.26 -331 23 C-331 17.06 -331 11.12 -331 5 C-329.67 4.99 -328.34 4.98 -326.98 4.97 C-289.53 4.68 -252.09 4.37 -214.64 4.03 C-211.21 4 -207.78 3.97 -204.35 3.94 C-151.18 3.56 -151.18 3.56 -98.06 1.35 C-65.42 -0.6 -32.68 -0.11 0 0 Z " fill="#B1B2B4" transform="translate(484,232)"/>
<path d="M0 0 C0.33 0 0.66 0 1 0 C1.33 8.91 1.66 17.82 2 27 C8.55 27.29 8.55 27.29 15.1 27.57 C15.93 27.61 16.77 27.64 17.62 27.68 C18.46 27.72 19.3 27.76 20.16 27.79 C22.37 27.95 24.56 28.21 26.75 28.5 C31.27 29.08 35.76 29.22 40.31 29.32 C41.22 29.34 42.12 29.36 43.05 29.38 C46.03 29.45 49.02 29.5 52 29.56 C53.54 29.59 53.54 29.59 55.11 29.63 C81.74 30.17 108.37 30.1 135 30 C135 30.33 135 30.66 135 31 C133.02 31 131.04 31 129 31 C129 31.66 129 32.32 129 33 C116.57 33.97 104.21 34.16 91.75 34.12 C90.78 34.12 89.81 34.12 88.82 34.12 C74.96 34.1 61.11 33.93 47.25 33.56 C46.47 33.54 45.69 33.52 44.89 33.5 C42.72 33.45 40.56 33.38 38.39 33.32 C36.57 33.26 36.57 33.26 34.7 33.21 C32 33 32 33 31 32 C21.39 30.8 11.68 30.46 2 30 C2 50.46 2 70.92 2 92 C1.01 92.5 1.01 92.5 0 93 C0 62.31 0 31.62 0 0 Z " fill="#7C7C7E" transform="translate(153,96)"/>
<path d="M0 0 C2.64 0 5.28 -0 7.92 -0 C53.87 -0.01 99.8 1.07 145.74 2.19 C145.74 2.52 145.74 2.85 145.74 3.19 C144.47 3.19 144.47 3.19 143.18 3.19 C122.45 3.16 101.73 3.15 81.01 3.14 C70.98 3.13 60.96 3.12 50.94 3.11 C42.18 3.1 33.43 3.1 24.67 3.09 C20.05 3.09 15.44 3.09 10.82 3.08 C-7.06 3.06 -24.92 3.11 -42.79 3.63 C-43.81 3.66 -43.81 3.66 -44.85 3.69 C-52.83 3.93 -60.8 4.33 -68.78 4.85 C-73.3 5.14 -77.79 5.31 -82.32 5.3 C-83.32 5.3 -83.32 5.3 -84.34 5.3 C-86.46 5.3 -88.58 5.29 -90.7 5.29 C-92.2 5.28 -93.7 5.28 -95.2 5.28 C-99.1 5.28 -102.99 5.27 -106.88 5.26 C-110.88 5.25 -114.87 5.24 -118.87 5.24 C-126.67 5.23 -134.46 5.21 -142.26 5.19 C-142.26 4.86 -142.26 4.53 -142.26 4.19 C-141.25 4.15 -140.23 4.12 -139.19 4.08 C-129.53 3.74 -119.87 3.41 -110.2 3.07 C-105.24 2.89 -100.28 2.72 -95.31 2.55 C-90.52 2.38 -85.72 2.21 -80.93 2.04 C-79.04 1.98 -77.15 1.91 -75.26 1.84 C-66.14 1.52 -57.02 1.2 -47.91 0.73 C-31.95 -0.07 -15.98 -0.01 0 0 Z " fill="#666B6B" transform="translate(450.2608299255371,229.8115234375)"/>
<path d="M0 0 C1.32 0 2.64 0 4 0 C4.94 16.71 -0.67 32.09 -5.9 47.71 C-7.01 51.02 -8.08 54.33 -9.16 57.65 C-9.86 59.75 -10.55 61.84 -11.25 63.94 C-11.57 64.92 -11.88 65.9 -12.21 66.92 C-12.52 67.82 -12.82 68.72 -13.14 69.65 C-13.4 70.45 -13.67 71.24 -13.94 72.06 C-15.25 74.46 -16.49 75.03 -19 76 C-19.33 75.67 -19.66 75.34 -20 75 C-19.64 67.46 -17.03 60.75 -14.5 53.69 C-14.08 52.51 -13.67 51.33 -13.24 50.12 C-12.47 47.94 -11.7 45.77 -10.92 43.6 C-10.26 41.74 -9.62 39.87 -9 38 C-9.74 37.77 -10.48 37.53 -11.25 37.29 C-17.9 34.17 -23.03 25.59 -26 19 C-25.75 16.06 -25.75 16.06 -25 14 C-21.28 15.24 -21 16.28 -19.12 19.62 C-15.23 27.51 -15.23 27.51 -8.85 32.68 C-8.24 32.79 -7.63 32.89 -7 33 C-4.45 24.38 -2.53 16.05 -1.6 7.11 C-1.08 2.16 -1.08 2.16 0 0 Z " fill="#818183" transform="translate(48,8)"/>
<path d="M0 0 C3.51 -0.4 4.77 -0.15 7.75 1.88 C10.46 4.44 10.93 5.24 11.27 8.94 C11.18 14.21 9.37 19 7.69 23.94 C7.34 24.98 6.99 26.01 6.63 27.08 C2.57 38.76 -2.62 49.89 -8 61 C-8.56 62.2 -9.11 63.39 -9.69 64.62 C-11 67 -11 67 -13.19 67.88 C-13.79 67.92 -14.38 67.96 -15 68 C-16.14 64.58 -15.92 64.16 -14.56 61.01 C-14.22 60.23 -13.89 59.44 -13.55 58.64 C-13.18 57.81 -12.81 56.98 -12.44 56.12 C-12.07 55.28 -11.7 54.43 -11.33 53.55 C-8.74 47.57 -6.04 41.64 -3.23 35.76 C-1.95 32.89 -0.95 30 0 27 C-0.57 26.94 -1.13 26.88 -1.72 26.82 C-7.74 24.65 -12.32 16.37 -15.62 11.06 C-17 8 -17 8 -16.75 5.56 C-16.5 5.05 -16.25 4.53 -16 4 C-14.11 4.28 -14.11 4.28 -12 5 C-11.06 6.87 -10.14 8.75 -9.28 10.66 C-7.28 14.31 -4.47 17.12 -1.61 20.12 C0 22 0 22 0 24 C0.66 24 1.32 24 2 24 C3.46 18.01 4.42 12.14 5 6 C4.36 5.71 3.71 5.43 3.05 5.13 C1 4 1 4 0.25 1.88 C0.17 1.26 0.09 0.64 0 0 Z " fill="#C4C4C7" transform="translate(111,0)"/>
<path d="M0 0 C-0.33 0.66 -0.66 1.32 -1 2 C-3.51 2.41 -3.51 2.41 -6.92 2.64 C-8.2 2.73 -9.49 2.82 -10.81 2.91 C-12.25 3 -13.68 3.09 -15.11 3.18 C-16.61 3.28 -18.1 3.39 -19.6 3.49 C-23.66 3.76 -27.72 4.02 -31.77 4.28 C-34.31 4.44 -36.84 4.6 -39.37 4.77 C-67.08 6.58 -94.81 7.98 -122.57 9.1 C-123.59 9.14 -123.59 9.14 -124.64 9.18 C-127.83 9.31 -131.01 9.44 -134.19 9.56 C-140.57 9.81 -146.91 10.2 -153.26 10.79 C-158.09 11.16 -162.91 11.11 -167.75 11.06 C-169.24 11.06 -169.24 11.06 -170.77 11.05 C-173.18 11.04 -175.59 11.02 -178 11 C-178 10.67 -178 10.34 -178 10 C-163.57 7.83 -149.05 7.06 -134.5 6.19 C-131.01 5.98 -127.53 5.76 -124.04 5.54 C-118.4 5.19 -112.76 4.84 -107.12 4.5 C-96.44 3.84 -85.76 3.18 -75.08 2.5 C-72.13 2.32 -69.17 2.13 -66.22 1.95 C-64.43 1.84 -62.64 1.73 -60.85 1.61 C-60.06 1.57 -59.27 1.52 -58.46 1.47 C-54.9 1.24 -51.38 0.95 -47.84 0.48 C-42.07 -0.24 -36.31 -0.42 -30.5 -0.62 C-28.64 -0.69 -28.64 -0.69 -26.75 -0.76 C-17.76 -1.04 -8.95 -0.9 0 0 Z " fill="#9FA1A3" transform="translate(468,115)"/>
<path d="M0 0 C0.99 0.33 1.98 0.66 3 1 C2.92 19.06 -7.46 36.98 -16.75 52 C-17.11 52.61 -17.48 53.21 -17.85 53.84 C-18.92 55.5 -18.92 55.5 -21 58 C-22.32 58 -23.64 58 -25 58 C-24.51 52.96 -22.75 49.46 -20 45.31 C-17.09 40.87 -17.09 40.87 -15 36 C-16.87 27.6 -21.22 20.18 -27.71 14.5 C-29 13 -29 13 -29 9 C-23.78 9.66 -22.04 11.6 -18.78 15.52 C-15.73 19.77 -13.34 24.34 -11 29 C-5.5 16.22 -5.5 16.22 -1.51 2.91 C-1 1 -1 1 0 0 Z " fill="#949B9D" transform="translate(713,242)"/>
<path d="M0 0 C1.04 0 2.08 0.01 3.15 0.01 C5.62 0.03 8.09 0.04 10.56 0.06 C10.56 0.39 10.56 0.72 10.56 1.06 C-14.85 2.05 -40.26 3.04 -66.44 4.06 C-62.15 4.39 -57.86 4.72 -53.44 5.06 C-53.44 5.39 -53.44 5.72 -53.44 6.06 C-64.27 6.25 -75.1 6.41 -85.94 6.56 C-86.78 6.57 -87.62 6.59 -88.49 6.6 C-123.45 7.09 -158.41 7.15 -193.38 7.12 C-194.65 7.12 -195.92 7.12 -197.23 7.12 C-212.96 7.11 -228.7 7.09 -244.44 7.06 C-244.44 6.73 -244.44 6.4 -244.44 6.06 C-243.45 6.05 -242.46 6.04 -241.45 6.03 C-232.04 5.93 -222.63 5.83 -213.22 5.72 C-208.38 5.67 -203.54 5.62 -198.71 5.57 C-172.85 5.33 -172.85 5.33 -147 4.59 C-146.05 4.55 -145.11 4.52 -144.13 4.48 C-139.81 4.33 -139.81 4.33 -135.56 3.56 C-133.45 3.07 -131.6 2.91 -129.43 2.87 C-128.25 2.85 -128.25 2.85 -127.04 2.82 C-126.18 2.81 -125.33 2.8 -124.44 2.78 C-123.53 2.76 -122.62 2.75 -121.69 2.73 C-118.67 2.67 -115.65 2.62 -112.64 2.56 C-110.52 2.52 -108.41 2.48 -106.29 2.44 C-100.71 2.33 -95.12 2.23 -89.54 2.12 C-80.67 1.96 -71.8 1.79 -62.93 1.62 C-59.86 1.56 -56.8 1.51 -53.73 1.46 C-42.84 1.25 -31.97 0.92 -21.09 0.4 C-14.05 0.07 -7.04 -0.06 0 0 Z " fill="#919193" transform="translate(405.4375,229.9375)"/>
<path d="M0 0 C2.12 0.38 2.12 0.38 4 1 C2.7 4.41 1.22 7.58 -0.54 10.77 C-1.28 12.12 -1.28 12.12 -2.04 13.5 C-2.56 14.45 -3.09 15.4 -3.62 16.38 C-4.71 18.36 -5.8 20.34 -6.89 22.32 C-7.42 23.29 -7.95 24.26 -8.5 25.25 C-13.17 33.78 -17.8 42.32 -21.89 51.14 C-23 53 -23 53 -26 55 C-26.33 54.67 -26.66 54.34 -27 54 C-26.64 48.18 -24.77 43.92 -22.06 38.81 C-21.7 38.11 -21.34 37.42 -20.97 36.7 C-19.59 34.02 -18.19 31.35 -16.75 28.71 C-15.34 25.5 -16.07 23.32 -17 20 C-19.13 16.83 -21.55 13.93 -24 11 C-26.06 8.25 -26.06 8.25 -27 6 C-26.19 3.19 -26.19 3.19 -25 1 C-22 2 -22 2 -20.69 4.56 C-20.13 5.7 -19.57 6.83 -19 8 C-16.56 11.54 -14.04 14.96 -11 18 C-10.37 16.87 -9.75 15.74 -9.1 14.57 C-8.28 13.09 -7.45 11.61 -6.62 10.12 C-6.21 9.38 -5.8 8.63 -5.38 7.86 C-4.78 6.79 -4.78 6.79 -4.16 5.7 C-3.8 5.04 -3.43 4.38 -3.05 3.7 C-2 2 -2 2 0 0 Z " fill="#AAAFB0" transform="translate(771,239)"/>
<path d="M0 0 C3.09 5.43 2.77 10.93 1.28 16.89 C-0.6 22.47 -2.5 27.12 -7 31 C-9.77 32.11 -12.05 32.45 -15 32 C-18.14 30.36 -20.24 28 -22.38 25.19 C-23.39 21.63 -24 18.58 -23 15 C-20.71 12.12 -18.18 9.86 -15 8 C-13.68 8 -12.36 8 -11 8 C-10.92 7.42 -10.84 6.84 -10.75 6.25 C-8.87 0.6 -5.63 -0.51 0 0 Z M-5 5 C-5.25 5.64 -5.5 6.28 -5.75 6.94 C-7 9 -7 9 -8.85 9.46 C-12.7 10.43 -15.34 13.15 -18 16 C-19.4 18.42 -19.4 18.42 -19 21 C-16.54 25.69 -16.54 25.69 -12 28 C-6.81 25.07 -4.57 20.56 -3 15 C-2.7 11.63 -2.75 8.37 -3 5 C-3.66 5 -4.32 5 -5 5 Z " fill="#A6A6A8" transform="translate(127,110)"/>
<path d="M0 0 C0 0.33 0 0.66 0 1 C-22.62 4.81 -44.78 5.63 -67.69 5.68 C-74.65 5.7 -81.61 5.76 -88.57 5.81 C-91.09 5.82 -93.61 5.84 -96.13 5.85 C-106.38 5.92 -116.6 6.18 -126.84 6.65 C-135.59 7.05 -144.31 7.12 -153.06 7.06 C-154.54 7.06 -156.01 7.05 -157.49 7.05 C-160.99 7.04 -164.5 7.02 -168 7 C-168 6.67 -168 6.34 -168 6 C-163.79 5.68 -159.58 5.37 -155.38 5.06 C-154.22 4.98 -153.07 4.89 -151.89 4.8 C-147.93 4.51 -143.96 4.25 -140 4 C-139.29 3.95 -138.59 3.91 -137.86 3.86 C-124.54 3.04 -111.23 2.88 -97.89 2.75 C-96.98 2.75 -96.07 2.74 -95.14 2.73 C-86.58 2.65 -78.02 2.58 -69.47 2.52 C-64.74 2.49 -60.01 2.45 -55.29 2.4 C-53.52 2.39 -51.74 2.37 -49.97 2.37 C-40.28 2.32 -30.78 1.96 -21.16 0.7 C-14.09 -0.21 -7.12 -0.19 0 0 Z " fill="#5F6565" transform="translate(668,106)"/>
<path d="M0 0 C3.33 -0.03 6.67 -0.05 10 -0.06 C10.93 -0.07 11.87 -0.08 12.83 -0.09 C18.32 -0.11 23.57 0.19 29 1 C29 1.33 29 1.66 29 2 C19.76 2 10.52 2 1 2 C1.01 6.26 1.02 10.52 1.04 14.9 C1.04 18.38 1.05 21.85 1.05 25.33 C1.06 28.95 1.06 32.57 1.08 36.2 C1.12 51.33 1.06 66.42 0.35 81.54 C-0.04 90.03 -0.11 98.5 0 107 C26.9 107.87 53.78 108.09 80.69 108.06 C81.49 108.06 82.29 108.06 83.11 108.06 C93.07 108.05 103.04 108.03 113 108 C113 108.33 113 108.66 113 109 C95.13 109.97 77.29 110.16 59.4 110.13 C55.68 110.12 51.96 110.13 48.24 110.13 C31.47 110.16 14.75 109.94 -2 109 C-2.02 106.66 -2.03 104.33 -2.05 101.99 C-2.06 100.25 -2.07 98.51 -2.09 96.77 C-2.11 89.75 -1.84 82.76 -1.53 75.75 C-0.9 61.02 -0.68 46.28 -0.47 31.54 C-0.42 27.97 -0.36 24.39 -0.31 20.82 C-0.2 13.88 -0.1 6.94 0 0 Z " fill="#C1C1C3" transform="translate(155,126)"/>
<path d="M0 0 C0.66 0 1.32 0 2 0 C5.52 7.74 5.15 15.73 5.13 24.07 C5.13 25.88 5.13 25.88 5.14 27.73 C5.14 31.03 5.14 34.33 5.13 37.62 C5.12 39.69 5.12 41.76 5.12 43.82 C5.1 76.89 4.58 109.94 4 143 C3.67 143 3.34 143 3 143 C2.67 130.46 2.34 117.92 2 105 C-4.18 104.98 -4.18 104.98 -10 106 C-10.33 105.01 -10.66 104.02 -11 103 C-9 101 -9 101 -6.94 100.77 C-5.76 100.79 -5.76 100.79 -4.56 100.81 C-3.78 100.82 -3 100.83 -2.19 100.83 C0 101 0 101 3 102 C2.89 91.4 2.78 80.81 2.66 70.21 C2.61 65.29 2.55 60.36 2.5 55.44 C2.45 50.68 2.4 45.92 2.35 41.16 C2.33 39.36 2.31 37.55 2.29 35.75 C2.13 17.8 2.13 17.8 0 0 Z " fill="#979799" transform="translate(149,21)"/>
<path d="M0 0 C2.25 -0.03 4.5 -0.05 6.75 -0.06 C8 -0.07 9.26 -0.09 10.55 -0.1 C13.92 -0.07 17.24 0.17 20.59 0.47 C27.64 1.09 34.68 1.34 41.75 1.56 C43.03 1.61 44.31 1.65 45.63 1.69 C48.76 1.8 51.88 1.9 55 2 C55.56 3.94 55.56 3.94 56 6 C53.27 8.73 46.25 7.89 42.43 8 C34.12 8 25.82 6.92 17.56 6.06 C15.56 5.86 13.56 5.67 11.55 5.47 C6.7 4.99 1.85 4.5 -3 4 C-3 3.67 -3 3.34 -3 3 C5.25 3 13.5 3 22 3 C14.74 2.34 7.48 1.68 0 1 C0 0.67 0 0.34 0 0 Z " fill="#A4AAAB" transform="translate(674,230)"/>
<path d="M0 0 C1.03 0.07 1.03 0.07 2.08 0.14 C3.7 0.26 5.32 0.38 6.94 0.5 C6.94 0.83 6.94 1.16 6.94 1.5 C5.99 1.53 5.05 1.55 4.07 1.58 C0.48 1.67 -3.12 1.77 -6.71 1.87 C-8.25 1.91 -9.79 1.96 -11.33 2 C-13.57 2.06 -15.82 2.12 -18.06 2.18 C-19.05 2.21 -19.05 2.21 -20.07 2.23 C-24.92 2.38 -29.75 2.68 -34.6 3.01 C-42.9 3.56 -51.18 3.63 -59.5 3.6 C-61 3.6 -62.5 3.59 -64.01 3.59 C-67.9 3.59 -71.79 3.58 -75.68 3.57 C-79.68 3.56 -83.68 3.55 -87.67 3.55 C-95.47 3.54 -103.27 3.52 -111.06 3.5 C-111.06 3.17 -111.06 2.84 -111.06 2.5 C-100.27 2.11 -89.48 1.71 -78.7 1.33 C-73.68 1.15 -68.67 0.97 -63.66 0.78 C-58.81 0.6 -53.96 0.43 -49.11 0.26 C-47.27 0.19 -45.44 0.12 -43.6 0.06 C-14.28 -1.03 -14.28 -1.03 0 0 Z " fill="#6F7071" transform="translate(419.0625,231.5)"/>
<path d="M0 0 C2.49 1.2 4.68 2.45 7 4 C7.82 14.15 5.75 23.72 2.06 33.12 C1.81 33.78 1.56 34.43 1.3 35.1 C-0.11 38.52 -0.84 39.89 -4 42 C-5.1 44.33 -6.07 46.61 -7 49 C-8.17 51.8 -9.37 54.59 -10.56 57.38 C-10.87 58.1 -11.17 58.82 -11.48 59.57 C-13.77 64.89 -13.77 64.89 -16 66 C-15.41 61.21 -13.96 57.16 -11.98 52.8 C-11.68 52.13 -11.38 51.45 -11.07 50.75 C-10.12 48.6 -9.15 46.46 -8.19 44.31 C1.26 25.43 1.26 25.43 4 5 C2.1 3.16 2.1 3.16 0 2 C0 1.34 0 0.68 0 0 Z " fill="#A3A3A7" transform="translate(113,1)"/>
<path d="M0 0 C2.44 0.38 2.44 0.38 5 1 C6.57 4.14 6.42 7.54 6.62 11 C6.68 11.74 6.73 12.47 6.78 13.23 C7.12 18.75 7.12 18.75 6 21 C4.68 20.67 3.36 20.34 2 20 C1.01 15.05 1.01 15.05 0 10 C-1.32 12.97 -2.64 15.94 -4 19 C-4.99 18.67 -5.98 18.34 -7 18 C-7.66 11.39 -4.93 6.76 -1.25 1.5 C-0.84 1.01 -0.42 0.51 0 0 Z " fill="#C3C3C5" transform="translate(55,48)"/>
<path d="M0 0 C3.62 -0 7.24 -0.02 10.85 -0.04 C21.99 -0.07 33.05 0.1 44.15 1.07 C45.06 1.15 45.97 1.23 46.91 1.31 C50.99 1.71 54.02 2.17 57.65 4.19 C51.48 4.3 45.35 4.2 39.19 3.85 C24.29 3.03 9.38 2.86 -5.53 2.65 C-9.13 2.6 -12.73 2.55 -16.33 2.49 C-23.34 2.39 -30.34 2.28 -37.35 2.19 C-37.35 1.86 -37.35 1.53 -37.35 1.19 C-24.92 -0.06 -12.48 -0 0 0 Z " fill="#5F6566" transform="translate(642.34619140625,229.814697265625)"/>
<path d="M0 0 C0 0.33 0 0.66 0 1 C-0.56 1.04 -1.12 1.07 -1.7 1.11 C-7.56 1.48 -13.41 1.85 -19.27 2.23 C-21.45 2.37 -23.64 2.51 -25.82 2.64 C-28.96 2.84 -32.11 3.04 -35.25 3.25 C-36.22 3.31 -37.19 3.37 -38.19 3.43 C-43.18 3.75 -48.07 4.21 -53 5 C-46.68 5.09 -40.42 5.11 -34.12 4.5 C-27.08 3.83 -20.07 3.91 -13 4 C-13 4.33 -13 4.66 -13 5 C-18.22 5.44 -23.45 5.86 -28.67 6.28 C-30.44 6.42 -32.21 6.57 -33.98 6.72 C-46.02 7.72 -57.92 8.2 -70 8 C-70 7.67 -70 7.34 -70 7 C-72.64 6.67 -75.28 6.34 -78 6 C-78 5.67 -78 5.34 -78 5 C-23.5 -0.57 -23.5 -0.57 0 0 Z " fill="#BCBCBE" transform="translate(352,120)"/>
<path d="M0 0 C5.2 0.67 6.92 2.54 10.15 6.48 C19.12 18.7 19.12 18.7 18.87 23.54 C17.88 26.34 16.62 28.71 15.06 31.25 C14.54 32.12 14.01 32.99 13.47 33.89 C12 36 12 36 10 37 C12 32 12 32 13.16 29.65 C14.72 24.72 12.2 20.45 10 16 C7.47 12.18 4.75 8.53 1.29 5.5 C0 4 0 4 0 0 Z " fill="#B8C0C0" transform="translate(684,251)"/>
<path d="M0 0 C1.65 0.33 3.3 0.66 5 1 C6.03 3.68 6.1 4.75 5.04 7.47 C4.34 8.75 4.34 8.75 3.62 10.06 C2.19 12.74 0.96 15.11 0 18 C2.97 17.67 5.94 17.34 9 17 C9 18.32 9 19.64 9 21 C4.27 22.96 0.99 23.25 -4 22 C-6 19 -6 19 -5.88 16.75 C-4.94 13.82 -3.51 11.47 -1.92 8.85 C-0.47 5.94 -0.26 3.22 0 0 Z " fill="#ADB6B5" transform="translate(761,274)"/>
<path d="M0 0 C2.12 0.94 2.12 0.94 4 2 C4.08 6.16 3.98 9.95 3 14 C7.46 13.5 7.46 13.5 12 13 C12.33 14.32 12.66 15.64 13 17 C9.02 20.08 5.83 20.35 0.99 20.4 C-1 20 -1 20 -3 17 C-3.03 14.23 -2.96 11.62 -2.75 8.88 C-2.71 8.13 -2.67 7.39 -2.63 6.63 C-2.5 4.75 -2.26 2.87 -2 1 C-1.34 0.67 -0.68 0.34 0 0 Z " fill="#BCBCBD" transform="translate(129,31)"/>
<path d="M0 0 C2.27 -0.03 4.54 -0.05 6.81 -0.06 C8.08 -0.07 9.34 -0.09 10.64 -0.1 C13.82 -0.07 16.93 0.16 20.09 0.47 C26.95 1.14 33.81 1.34 40.69 1.56 C42.62 1.63 42.62 1.63 44.58 1.69 C47.72 1.8 50.86 1.9 54 2 C54.06 2.95 54.12 3.91 54.18 4.89 C54.27 6.14 54.35 7.4 54.44 8.69 C54.52 9.93 54.6 11.17 54.68 12.45 C54.96 16.26 54.96 16.26 56 21 C56 15.06 56 9.12 56 3 C63.59 3 71.18 3 79 3 C79 3.33 79 3.66 79 4 C71.74 4 64.48 4 57 4 C57.5 5.49 57.5 5.49 58 7 C58.14 8.41 58.25 9.82 58.32 11.23 C58.36 12.03 58.4 12.84 58.44 13.66 C58.48 14.5 58.52 15.33 58.56 16.19 C58.61 17.03 58.65 17.88 58.69 18.75 C58.8 20.83 58.9 22.92 59 25 C57.68 25 56.36 25 55 25 C53.4 19.91 52.88 15.55 52.94 10.2 C52.95 9.04 52.96 7.87 52.96 6.67 C52.98 5.79 52.99 4.91 53 4 C52.45 3.98 51.91 3.95 51.35 3.93 C45.63 3.69 39.92 3.45 34.21 3.2 C32.09 3.11 29.96 3.02 27.83 2.93 C24.76 2.8 21.69 2.67 18.62 2.54 C17.68 2.5 16.74 2.46 15.77 2.42 C10.46 2.18 5.26 1.74 0 1 C0 0.67 0 0.34 0 0 Z " fill="#BBBBBE" transform="translate(97,234)"/>
<path d="M0 0 C0.33 0.33 0.66 0.66 1 1 C0.94 7.98 -0.78 14.43 -3 21 C-3.99 21 -4.98 21 -6 21 C-7.34 15.66 -6.51 12.16 -5 7 C-5.76 7.82 -6.53 8.65 -7.31 9.5 C-10 12 -10 12 -13 12 C-12.5 7.59 -10.99 5.25 -8 2 C-4.78 -0.15 -3.72 -0.29 0 0 Z " fill="#999E9F" transform="translate(717,275)"/>
<path d="M0 0 C1.94 0.19 1.94 0.19 4 1 C5.25 3.06 5.25 3.06 6 5 C8.31 5 10.62 5 13 5 C12.12 8.88 12.12 8.88 11 10 C9 10.04 7 10.04 5 10 C4.88 10.95 4.75 11.9 4.62 12.88 C4 16 4 16 2 18 C1.01 18 0.02 18 -1 18 C-0.67 15.69 -0.34 13.38 0 11 C-1.65 11 -3.3 11 -5 11 C-4.34 9.68 -3.68 8.36 -3 7 C-2.34 7 -1.68 7 -1 7 C-1.02 6.03 -1.04 5.06 -1.06 4.06 C-1 1 -1 1 0 0 Z " fill="#A4ABAB" transform="translate(726,262)"/>
<path d="M0 0 C0.33 0 0.66 0 1 0 C2.14 23.74 2.31 47.27 1 71 C0.34 71 -0.32 71 -1 71 C-1.14 47.31 -0.82 23.68 0 0 Z " fill="#7F7F81" transform="translate(152,164)"/>
<path d="M0 0 C1.32 0.33 2.64 0.66 4 1 C2.7 4.41 1.22 7.58 -0.54 10.77 C-1.28 12.12 -1.28 12.12 -2.04 13.5 C-2.56 14.45 -3.09 15.4 -3.62 16.38 C-4.71 18.36 -5.8 20.34 -6.89 22.32 C-7.42 23.29 -7.95 24.26 -8.5 25.25 C-13.17 33.78 -17.8 42.32 -21.89 51.14 C-23 53 -23 53 -26 55 C-26.33 54.67 -26.66 54.34 -27 54 C-26.66 48.25 -25 44.75 -22 40 C-20.75 42.49 -21.22 43.41 -22 46 C-21.62 45.27 -21.25 44.53 -20.86 43.78 C-13.8 30.05 -6.73 16.36 1 3 C0.01 3.33 -0.98 3.66 -2 4 C-1.34 2.68 -0.68 1.36 0 0 Z " fill="#B5BCBC" transform="translate(771,239)"/>
<path d="M0 0 C0.33 0.66 0.66 1.32 1 2 C0.09 4.1 0.09 4.1 -1.36 6.71 C-2.16 8.16 -2.16 8.16 -2.98 9.65 C-3.56 10.69 -4.15 11.74 -4.75 12.81 C-5.95 14.99 -7.15 17.16 -8.35 19.34 C-8.96 20.44 -9.57 21.55 -10.2 22.69 C-13.43 28.62 -16.51 34.64 -19.57 40.66 C-20 41.48 -20.42 42.31 -20.86 43.15 C-21.41 44.24 -21.41 44.24 -21.97 45.34 C-23 47 -23 47 -25 48 C-24.31 43.92 -23.09 40.24 -21.62 36.38 C-21.2 35.25 -20.78 34.12 -20.35 32.96 C-19.1 30.22 -18.18 28.97 -16 27 C-11.91 20.85 -9.28 13.99 -6.62 7.14 C-4.86 3.74 -3.13 2.14 0 0 Z " fill="#707576" transform="translate(772,240)"/>
<path d="M0 0 C1.32 0 2.64 0 4 0 C4.7 12.4 1.89 24.28 -2 36 C-2.33 36 -2.66 36 -3 36 C-2.45 29.51 -1.23 23.43 0.38 17.11 C1 13.99 1.11 11.18 1 8 C0.89 8.58 0.78 9.16 0.66 9.76 C0.16 12.4 -0.36 15.04 -0.88 17.69 C-1.05 18.6 -1.22 19.51 -1.4 20.45 C-2.26 24.82 -3.1 28.93 -5 33 C-6.17 29.59 -5.8 27.64 -4.69 24.25 C-3.02 18.63 -2.27 13.11 -1.65 7.31 C-1.09 2.18 -1.09 2.18 0 0 Z " fill="#BEBEBF" transform="translate(48,8)"/>
<path d="M0 0 C0 0.33 0 0.66 0 1 C-20.03 2.36 -39.91 3.35 -60 3 C-60 2.67 -60 2.34 -60 2 C-40.32 -1.15 -19.84 -2 0 0 Z " fill="#656B6B" transform="translate(468,115)"/>
<path d="M0 0 C1.89 0.28 1.89 0.28 4 1 C4.94 2.88 5.86 4.76 6.72 6.67 C8.7 10.28 11.52 13.01 14.39 15.92 C16 18 16 18 16 22 C8.08 18.27 2.34 12.16 -1 4 C-0.66 1.7 -0.66 1.7 0 0 Z " fill="#A0A0A3" transform="translate(95,4)"/>
<path d="M0 0 C1.12 3.37 0.91 3.95 -0.26 7.14 C-0.55 7.96 -0.84 8.77 -1.15 9.62 C-1.63 10.92 -1.63 10.92 -2.12 12.25 C-2.78 14.05 -3.44 15.86 -4.09 17.66 C-4.42 18.56 -4.74 19.46 -5.08 20.38 C-5.92 22.77 -6.7 25.17 -7.44 27.59 C-7.65 28.27 -7.87 28.96 -8.09 29.67 C-8.65 31.52 -9.21 33.37 -9.76 35.23 C-11 38 -11 38 -13.14 39.4 C-14.06 39.7 -14.06 39.7 -15 40 C-15.33 39.67 -15.66 39.34 -16 39 C-15.62 32.01 -13.41 26 -10.94 19.5 C-10.37 17.98 -10.37 17.98 -9.79 16.43 C-8.87 13.95 -7.94 11.47 -7 9 C-5.89 12.32 -6.06 12.88 -7.18 16.02 C-7.45 16.79 -7.72 17.57 -8 18.37 C-8.29 19.18 -8.58 19.98 -8.88 20.81 C-9.44 22.4 -10 23.99 -10.55 25.58 C-10.93 26.64 -10.93 26.64 -11.32 27.71 C-12.13 30.45 -12.58 33.18 -13 36 C-12.75 35.26 -12.5 34.53 -12.24 33.77 C-11.08 30.39 -9.91 27.01 -8.75 23.62 C-8.35 22.47 -7.96 21.31 -7.55 20.12 C-5.21 13.33 -2.75 6.63 0 0 Z " fill="#C0C0C2" transform="translate(44,44)"/>
<path d="M0 0 C0 0.33 0 0.66 0 1 C-1.18 1.04 -1.18 1.04 -2.38 1.08 C-6 1.19 -9.63 1.32 -13.25 1.44 C-15.1 1.5 -15.1 1.5 -16.99 1.56 C-22.74 1.75 -28.46 2.01 -34.19 2.53 C-40.05 3.06 -45.86 3.11 -51.75 3.06 C-52.75 3.06 -53.74 3.05 -54.77 3.05 C-57.18 3.04 -59.59 3.02 -62 3 C-62 2.67 -62 2.34 -62 2 C-41.18 -0.96 -21.01 -1.04 0 0 Z " fill="#757577" transform="translate(352,123)"/>
<path d="M0 0 C1.01 -0.02 1.01 -0.02 2.04 -0.04 C5.74 -0.05 8.48 0.15 11.62 2.19 C11.3 3.18 10.97 4.17 10.62 5.19 C4.36 5.19 -1.92 5.19 -8.38 5.19 C-8.7 3.87 -9.03 2.55 -9.38 1.19 C-6.37 -0.31 -3.29 0 0 0 Z " fill="#9F9FA1" transform="translate(80.375,28.8125)"/>
<path d="M0 0 C0 0.33 0 0.66 0 1 C-19.35 2 -38.64 2.12 -58 2 C-58 1.67 -58 1.34 -58 1 C-38.51 -0.54 -19.51 -1.71 0 0 Z " fill="#686E6E" transform="translate(558,111)"/>
<path d="M0 0 C6.34 -0.28 12.22 0.8 18.44 2 C19.96 2.29 19.96 2.29 21.52 2.58 C24.02 3.05 26.51 3.52 29 4 C26.31 6.98 26.31 6.98 23.54 7.18 C8.06 5.56 8.06 5.56 1 3 C0.67 2.01 0.34 1.02 0 0 Z " fill="#A3A3A4" transform="translate(70,227)"/>
<path d="M0 0 C13.2 0 26.4 0 40 0 C40 0.33 40 0.66 40 1 C32.41 1.33 24.82 1.66 17 2 C17.5 12.4 17.5 12.4 18 23 C13.62 16.43 14.93 8.62 15 1 C10.05 1 5.1 1 0 1 C0 0.67 0 0.34 0 0 Z " fill="#78787A" transform="translate(136,235)"/>
<path d="M0 0 C0.66 0 1.32 0 2 0 C3.83 3.9 4.24 6.96 4.23 11.26 C4.23 12.5 4.23 13.74 4.23 15.02 C4.22 16.36 4.21 17.71 4.2 19.05 C4.19 20.43 4.19 21.82 4.19 23.2 C4.18 26.83 4.16 30.46 4.14 34.08 C4.12 37.79 4.11 41.5 4.1 45.21 C4.08 52.47 4.04 59.74 4 67 C3.67 67 3.34 67 3 67 C2.99 66.43 2.98 65.86 2.97 65.27 C2.86 59.25 2.75 53.23 2.63 47.21 C2.58 44.97 2.54 42.73 2.5 40.49 C2.3 20.16 2.3 20.16 0 0 Z " fill="#616163" transform="translate(149,21)"/>
<path d="M0 0 C2.66 4.57 2.42 8.84 2 14 C1 17.62 1 17.62 0 20 C-1.2 16.25 -1.1 12.67 -1.06 8.75 C-1.05 7.49 -1.04 6.22 -1.04 4.92 C-1.02 3.96 -1.01 2.99 -1 2 C-3.47 2.34 -3.47 2.34 -6 3 C-6.33 3.66 -6.66 4.32 -7 5 C-5.35 4.34 -3.7 3.68 -2 3 C-2 6.96 -2 10.92 -2 15 C-2.33 15 -2.66 15 -3 15 C-3 11.7 -3 8.4 -3 5 C-3.56 5.62 -4.11 6.24 -4.69 6.88 C-7.07 9.06 -8.96 9.99 -12 11 C-12 10.34 -12 9.68 -12 9 C-13.32 9.33 -14.64 9.66 -16 10 C-15.67 9.34 -15.34 8.68 -15 8 C-13.68 8 -12.36 8 -11 8 C-10.92 7.42 -10.83 6.84 -10.75 6.25 C-8.87 0.6 -5.63 -0.51 0 0 Z " fill="#BBBBBC" transform="translate(127,110)"/>
<path d="M0 0 C0.99 0 1.98 0 3 0 C4.59 3.19 4.1 6.63 4.06 10.12 C4.06 10.88 4.05 11.63 4.05 12.41 C4.04 14.27 4.02 16.14 4 18 C3.34 18 2.68 18 2 18 C1.34 13.38 0.68 8.76 0 4 C-0.64 5.26 -1.28 6.52 -1.94 7.81 C-2.3 8.52 -2.66 9.23 -3.03 9.96 C-4.11 12.12 -4.11 12.12 -5 15 C-5.66 15 -6.32 15 -7 15 C-6.57 9.31 -4.06 4.06 0 0 Z " fill="#757577" transform="translate(56,50)"/>
<path d="M0 0 C0 0.33 0 0.66 0 1 C-14.71 2.43 -29.22 3.29 -44 3 C-44 2.67 -44 2.34 -44 2 C-29.3 0.04 -14.82 -0.24 0 0 Z " fill="#646466" transform="translate(377,120)"/>
<path d="M0 0 C0.99 0 1.98 0 3 0 C3 0.66 3 1.32 3 2 C-7.25 7.7 -22.61 5.1 -34 5 C-34 4.67 -34 4.34 -34 4 C-24.65 2.81 -15.34 1.77 -5.92 1.34 C-2.68 1.44 -2.68 1.44 0 0 Z " fill="#586060" transform="translate(718,100)"/>
<path d="M0 0 C2.5 0.12 2.5 0.12 3.5 1.12 C3.54 3.12 3.54 5.13 3.5 7.12 C2.84 7.12 2.18 7.12 1.5 7.12 C1.17 8.44 0.84 9.76 0.5 11.12 C0.17 11.12 -0.16 11.12 -0.5 11.12 C-0.17 8.49 0.16 5.85 0.5 3.12 C-0.33 3.87 -0.33 3.87 -1.18 4.62 C-2.27 5.58 -2.27 5.58 -3.38 6.56 C-4.45 7.52 -4.45 7.52 -5.55 8.5 C-7.5 10.12 -7.5 10.12 -9.5 11.12 C-9.08 6.28 -7.04 4.31 -3.5 1.12 C-2.5 0.12 -2.5 0.12 0 0 Z " fill="#757B7D" transform="translate(714.5,274.875)"/>
<path d="M0 0 C1.26 5.02 0.21 6.19 -2.25 10.62 C-2.87 11.77 -3.5 12.92 -4.14 14.1 C-6 17 -6 17 -9 19 C-9.33 18.67 -9.66 18.34 -10 18 C-9.66 12.25 -8 8.75 -5 4 C-4 6 -4 6 -5 10 C-3.35 6.7 -1.7 3.4 0 0 Z " fill="#AEB2B4" transform="translate(754,275)"/>
<path d="M0 0 C0.66 0 1.32 0 2 0 C0.84 4.64 -0.7 8.58 -2.92 12.8 C-4.54 16.11 -5.8 19.55 -7.07 23 C-8 25 -8 25 -10 26 C-9.45 19.99 -6.95 15.02 -4.44 9.62 C-4.01 8.7 -3.59 7.77 -3.15 6.82 C-2.11 4.54 -1.06 2.27 0 0 Z " fill="#68686A" transform="translate(107,41)"/>
<path d="M0 0 C1 3 1 3 0 6 C4.46 5.5 4.46 5.5 9 5 C9 6.32 9 7.64 9 9 C4.27 10.96 0.99 11.25 -4 10 C-6 7 -6 7 -5.62 4.31 C-5.42 3.55 -5.21 2.79 -5 2 C-4.67 2 -4.34 2 -4 2 C-3.67 3.98 -3.34 5.96 -3 8 C0.3 8 3.6 8 7 8 C7.33 7.34 7.66 6.68 8 6 C7.01 6.33 6.02 6.66 5 7 C2.67 7.04 0.33 7.04 -2 7 C-2.12 4.62 -2.12 4.62 -2 2 C-1.34 1.34 -0.68 0.68 0 0 Z " fill="#B7BEBE" transform="translate(761,286)"/>
<path d="M0 0 C0.66 0.99 1.32 1.98 2 3 C1.53 3.74 1.06 4.47 0.57 5.23 C-0.05 6.21 -0.67 7.18 -1.31 8.19 C-1.93 9.15 -2.54 10.11 -3.18 11.11 C-4.37 13 -5.51 14.91 -6.61 16.86 C-7.07 17.57 -7.53 18.27 -8 19 C-8.66 19 -9.32 19 -10 19 C-9.65 13.03 -8.3 11 -4 7 C-2.51 4.73 -1.27 2.41 0 0 Z " fill="#7F8587" transform="translate(699,280)"/>
<path d="M0 0 C-0.36 3.25 -1.06 4.05 -3.56 6.31 C-6.38 8.87 -6.38 8.87 -6.31 12.81 C-6.21 13.86 -6.11 14.92 -6 16 C-6.66 16.33 -7.32 16.66 -8 17 C-10.13 13.54 -10.79 11.01 -10 7 C-3.8 0 -3.8 0 0 0 Z " fill="#8A8A8C" transform="translate(115,119)"/>
<path d="M0 0 C0.99 0 1.98 0 3 0 C2.67 4.95 2.34 9.9 2 15 C5.3 14.34 8.6 13.68 12 13 C12 13.66 12 14.32 12 15 C8.61 17.09 5.95 17.34 2 17 C0 15 0 15 -0.25 11.19 C-0.17 7.75 0.44 5.11 2 2 C1.34 2 0.68 2 0 2 C0 1.34 0 0.68 0 0 Z " fill="#6A6A6C" transform="translate(128,33)"/>
<path d="M0 0 C1 3 1 3 0.03 5.35 C-3.23 11.13 -6.69 16.63 -10.58 22 C-12.03 23.94 -12.03 23.94 -13 26 C-14.32 26 -15.64 26 -17 26 C-16.67 24.68 -16.34 23.36 -16 22 C-16 22.99 -16 23.98 -16 25 C-15.34 25 -14.68 25 -14 25 C-13.74 24.28 -13.48 23.57 -13.21 22.83 C-11.95 19.89 -10.45 17.42 -8.69 14.75 C-5.57 9.94 -2.71 5.05 0 0 Z " fill="#B5BEBC" transform="translate(705,274)"/>
<path d="M0 0 C7.12 2.37 10.96 10.25 14.15 16.61 C15.08 19.22 15.16 21.25 15 24 C13 22 13 22 11.81 18.44 C9.72 12.57 5.77 7.64 1.28 3.36 C0 2 0 2 0 0 Z " fill="#5F6465" transform="translate(685,252)"/>
<path d="M0 0 C0.33 0.66 0.66 1.32 1 2 C0.2 4.34 0.2 4.34 -1.09 7.23 C-1.54 8.26 -2 9.29 -2.47 10.35 C-2.95 11.43 -3.44 12.51 -3.94 13.62 C-4.42 14.71 -4.9 15.8 -5.4 16.92 C-6.59 19.62 -7.79 22.31 -9 25 C-9.99 25 -10.98 25 -12 25 C-10.73 22.12 -9.46 19.25 -8.19 16.38 C-7.83 15.57 -7.47 14.76 -7.11 13.93 C-1.68 1.68 -1.68 1.68 0 0 Z " fill="#BDBDBF" transform="translate(110,41)"/>
<path d="M0 0 C5 5 5 5 7.12 7.31 C8.95 9.33 8.95 9.33 12 9 C11.49 13.32 10.8 17.03 9 21 C8.07 17.99 7.96 17.13 9 14 C8.34 13.67 7.68 13.34 7 13 C7.99 13 8.98 13 10 13 C10 12.34 10 11.68 10 11 C9.28 10.81 8.56 10.63 7.81 10.44 C4.01 8.5 2.05 5.7 0 2 C0 1.34 0 0.68 0 0 Z " fill="#B9B9BC" transform="translate(30,32)"/>
<path d="M0 0 C2.15 2.62 3.4 4.64 4 8 C4.99 8 5.98 8 7 8 C7 11.63 6 13.05 4.12 16.12 C3.59 17.01 3.06 17.9 2.51 18.82 C1 21 1 21 -1 22 C1 17 1 17 2.31 14.75 C3.25 10.99 2.12 8.62 0.73 5.09 C0 3 0 3 0 0 Z " fill="#A9AFB1" transform="translate(695,266)"/>
<path d="M0 0 C-1 1 -1 1 -4.06 1.06 C-5.03 1.04 -6 1.02 -7 1 C-7.12 1.95 -7.25 2.9 -7.38 3.88 C-8 7 -8 7 -10 9 C-10.99 9 -11.98 9 -13 9 C-12.67 6.69 -12.34 4.38 -12 2 C-13.65 2 -15.3 2 -17 2 C-17 1.67 -17 1.34 -17 1 C-15.02 1 -13.04 1 -11 1 C-10.67 2.65 -10.34 4.3 -10 6 C-9.67 4.02 -9.34 2.04 -9 0 C-3.38 -1.12 -3.38 -1.12 0 0 Z " fill="#B2B7B7" transform="translate(738,271)"/>
<path d="M0 0 C2 3.75 2 3.75 2 6 C6.46 5.5 6.46 5.5 11 5 C11 5.66 11 6.32 11 7 C6.54 7.5 6.54 7.5 2 8 C2 9.98 2 11.96 2 14 C1.01 14.5 1.01 14.5 0 15 C0.33 12.69 0.66 10.38 1 8 C-0.32 7.67 -1.64 7.34 -3 7 C-2.01 7 -1.02 7 0 7 C0 4.69 0 2.38 0 0 Z " fill="#5C6262" transform="translate(727,263)"/>
<path d="M0 0 C0.33 0 0.66 0 1 0 C1.08 4.16 0.98 7.95 0 12 C4.46 11.5 4.46 11.5 9 11 C5.58 14.15 2.56 14.56 -2 15 C-2.19 9.47 -1.75 5.24 0 0 Z " fill="#C5C5C7" transform="translate(132,33)"/>
<path d="M0 0 C-1.18 1.5 -1.18 1.5 -3 3 C-5.36 3.25 -5.36 3.25 -8.11 3.07 C-9.09 3.02 -10.07 2.96 -11.08 2.91 C-12.11 2.84 -13.13 2.76 -14.19 2.69 C-15.22 2.63 -16.26 2.57 -17.33 2.5 C-19.89 2.35 -22.44 2.18 -25 2 C-25 1.67 -25 1.34 -25 1 C-16.64 0.16 -8.4 -0.12 0 0 Z " fill="#939395" transform="translate(299,124)"/>
<path d="M0 0 C0.66 0 1.32 0 2 0 C1.74 1.77 1.47 3.54 1.19 5.31 C1.04 6.3 0.89 7.28 0.73 8.3 C-0.05 11.19 -0.76 12.12 -3 14 C-4.02 15.32 -5.02 16.65 -6 18 C-5.48 15.24 -4.89 12.67 -4 10 C-3.34 10 -2.68 10 -2 10 C-1.34 6.7 -0.68 3.4 0 0 Z " fill="#838A8B" transform="translate(713,244)"/>
<path d="M0 0 C0.66 0 1.32 0 2 0 C2 1.65 2 3.3 2 5 C5.3 4.67 8.6 4.34 12 4 C11.67 4.99 11.34 5.98 11 7 C9.35 7.03 7.71 7.05 6.06 7.06 C5.15 7.07 4.23 7.09 3.29 7.1 C1 7 1 7 0 6 C-0.04 4 -0.04 2 0 0 Z " fill="#5E6464" transform="translate(757,288)"/>
<path d="M0 0 C0.33 0.66 0.66 1.32 1 2 C0.14 4.13 0.14 4.13 -1.19 6.56 C-1.61 7.37 -2.04 8.17 -2.48 9 C-4 11 -4 11 -6.18 11.78 C-7.08 11.89 -7.08 11.89 -8 12 C-6.72 7 -4.83 4.43 -1 1 C-0.67 0.67 -0.34 0.34 0 0 Z " fill="#848A8B" transform="translate(772,240)"/>
<path d="M0 0 C0.99 0 1.98 0 3 0 C3 0.66 3 1.32 3 2 C-0.88 4.67 -4.79 4.02 -9.25 3.62 C-10 3.57 -10.74 3.51 -11.51 3.45 C-13.34 3.31 -15.17 3.16 -17 3 C-17 2.67 -17 2.34 -17 2 C-15.86 1.94 -14.71 1.88 -13.54 1.82 C-12.04 1.73 -10.55 1.65 -9.06 1.56 C-8.31 1.52 -7.55 1.48 -6.78 1.44 C-3.08 1.56 -3.08 1.56 0 0 Z " fill="#626969" transform="translate(718,100)"/>
<path d="M0 0 C2.49 1.2 4.68 2.45 7 4 C7.36 6.09 7.36 6.09 7.31 8.5 C7.31 9.29 7.3 10.09 7.3 10.91 C7 13 7 13 5 15 C4.97 14.31 4.95 13.63 4.92 12.92 C4.87 12.02 4.81 11.12 4.75 10.19 C4.7 9.29 4.66 8.4 4.61 7.48 C3.84 4.35 2.61 3.74 0 2 C0 1.34 0 0.68 0 0 Z " fill="#6A6A6C" transform="translate(113,1)"/>
<path d="M0 0 C0.66 0 1.32 0 2 0 C4.16 4.32 4.07 7.55 3.62 12.31 C3.51 13.57 3.4 14.82 3.29 16.11 C3.19 17.07 3.1 18.02 3 19 C2.67 19 2.34 19 2 19 C1.91 17.7 1.91 17.7 1.82 16.37 C1.73 15.21 1.65 14.06 1.56 12.88 C1.48 11.74 1.4 10.6 1.32 9.43 C1.02 6.25 0.57 3.14 0 0 Z " fill="#7E7E80" transform="translate(149,21)"/>
<path d="M0 0 C1.65 0.33 3.3 0.66 5 1 C5 4.96 5 8.92 5 13 C4.67 13 4.34 13 4 13 C3.67 9.37 3.34 5.74 3 2 C0.69 3.32 -1.62 4.64 -4 6 C-2.85 3.53 -1.95 1.95 0 0 Z " fill="#5F5F61" transform="translate(122,111)"/>
<path d="M0 0 C1 3 1 3 -0.43 5.92 C-1.09 7 -1.76 8.08 -2.44 9.19 C-3.1 10.27 -3.75 11.36 -4.43 12.48 C-5.21 13.73 -5.21 13.73 -6 15 C-6.66 14.67 -7.32 14.34 -8 14 C-6.02 10.04 -4.04 6.08 -2 2 C-1.34 2 -0.68 2 0 2 C0 1.34 0 0.68 0 0 Z " fill="#585D5E" transform="translate(766,250)"/>
<path d="M0 0 C0.33 0 0.66 0 1 0 C1.95 6.85 2.61 13.43 0 20 C-0.66 20.33 -1.32 20.66 -2 21 C-1.86 19.95 -1.71 18.9 -1.56 17.81 C-0.82 11.9 -0.43 5.95 0 0 Z " fill="#9A9A9C" transform="translate(125,115)"/>
<path d="M0 0 C5 5 5 5 7.19 7.25 C8.89 9.07 8.89 9.07 11 10 C11 10.66 11 11.32 11 12 C7.23 11.45 5.69 9.98 3.25 7.12 C2.64 6.43 2.02 5.73 1.39 5.01 C0 3 0 3 0 0 Z " fill="#6C6C6E" transform="translate(29,33)"/>
<path d="M0 0 C0.99 0.33 1.98 0.66 3 1 C2.52 6 0.97 8.98 -2 13 C-2.33 12.01 -2.66 11.02 -3 10 C-2.29 8.82 -2.29 8.82 -1.56 7.62 C0.15 4.75 0.28 3.27 0 0 Z " fill="#5D6565" transform="translate(762,275)"/>
<path d="M0 0 C-0.33 1.65 -0.66 3.3 -1 5 C-1.99 5 -2.98 5 -4 5 C-4.66 5.66 -5.32 6.32 -6 7 C-6.66 7.66 -7.32 8.32 -8 9 C-8.99 9 -9.98 9 -11 9 C-10.67 8.01 -10.34 7.02 -10 6 C-9.34 6 -8.68 6 -8 6 C-6.5 4.67 -6.5 4.67 -5 3 C-2.22 0 -2.22 0 0 0 Z " fill="#B3BEBE" transform="translate(715,278)"/>
<path d="M0 0 C0.33 0 0.66 0 1 0 C1.55 5.63 -0.05 8.39 -3 13 C-3.93 10.45 -4.09 9.26 -3.22 6.64 C-2.84 5.85 -2.46 5.06 -2.06 4.25 C-1.68 3.45 -1.3 2.65 -0.91 1.83 C-0.61 1.22 -0.31 0.62 0 0 Z " fill="#6F6F71" transform="translate(101,54)"/>
<path d="M0 0 C3.31 -0.19 3.31 -0.19 7 0 C7.99 0.99 8.98 1.98 10 3 C7.03 3 4.06 3 1 3 C0.67 2.01 0.34 1.02 0 0 Z " fill="#989899" transform="translate(70,227)"/>
<path d="M0 0 C0.66 0.99 1.32 1.98 2 3 C1.54 5.04 1.54 5.04 0.62 7.19 C0.33 7.9 0.03 8.62 -0.27 9.36 C-0.51 9.9 -0.75 10.44 -1 11 C-1.66 10.67 -2.32 10.34 -3 10 C-2.39 6.44 -1.42 3.32 0 0 Z " fill="#79797B" transform="translate(111,31)"/>
<path d="M0 0 C0.66 0.33 1.32 0.66 2 1 C0.73 4.91 -0.51 6.79 -4 9 C-3.47 5.18 -2.5 2.94 0 0 Z " fill="#88908F" transform="translate(709,277)"/>
<path d="M0 0 C0.66 0 1.32 0 2 0 C2.12 1.07 2.25 2.15 2.38 3.25 C2.9 6.38 3.4 8.33 5 11 C2.5 9.44 2.5 9.44 0 7 C-0.31 3.25 -0.31 3.25 0 0 Z " fill="#898D90" transform="translate(746,242)"/>
<path d="M0 0 C0.66 0 1.32 0 2 0 C0.8 3.08 -0.48 6.06 -2 9 C-2.66 9 -3.32 9 -4 9 C-3.35 5.52 -2.02 2.91 0 0 Z " fill="#616668" transform="translate(693,290)"/>
<path d="M0 0 C0.33 0 0.66 0 1 0 C1 4.95 1 9.9 1 15 C0.67 15 0.34 15 0 15 C-0.19 12.69 -0.38 10.38 -0.56 8.06 C-0.72 6.13 -0.72 6.13 -0.88 4.16 C-0.92 3.12 -0.96 2.07 -1 1 C-0.67 0.67 -0.34 0.34 0 0 Z " fill="#ADB1B2" transform="translate(778,234)"/>
<path d="M0 0 C3.83 1.45 5.12 3.43 7 7 C6.01 7 5.02 7 4 7 C0 2.66 0 2.66 0 0 Z " fill="#5F6566" transform="translate(748,247)"/>
<path d="M0 0 C0.66 0 1.32 0 2 0 C1.38 5.54 1.38 5.54 -0.56 7.88 C-1.04 8.25 -1.51 8.62 -2 9 C-1.12 2.25 -1.12 2.25 0 0 Z " fill="#69696B" transform="translate(114,24)"/>
</svg>
